<svg version="1.1" id="Layer_1" xmlns="http://www.w3.org/2000/svg" xmlns:xlink="http://www.w3.org/1999/xlink" x="0px" y="0px"
	 width="100%" viewBox="0 0 162 162" enable-background="new 0 0 162 162" xml:space="preserve">
<path fill="#F9F9F9" opacity="1.000000" stroke="none" 
	d="
M163.000000,58.000000 
	C163.000000,93.333328 163.000000,128.166656 163.000000,163.000000 
	C109.000015,163.000000 55.000031,163.000000 1.000036,163.000000 
	C1.000024,109.000023 1.000024,55.000050 1.000012,1.000057 
	C54.999966,1.000038 108.999931,1.000038 162.999939,1.000019 
	C163.000000,19.833334 163.000000,38.666668 163.000000,58.000000 
M17.919445,79.509750 
	C23.662971,104.228577 39.459877,119.592041 63.128517,127.563011 
	C63.128517,133.494644 63.120995,139.146347 63.130291,144.798004 
	C63.144062,153.169495 66.745033,158.194290 73.279640,159.092636 
	C79.177757,159.903442 85.984833,156.515152 87.087883,147.848495 
	C87.121132,147.587296 87.487938,147.368546 87.705215,147.135315 
	C98.931900,150.590042 106.018379,145.337784 106.045120,133.541550 
	C106.048141,132.209320 106.192635,130.857422 106.017250,129.548706 
	C105.559700,126.134369 106.861801,124.432159 110.122238,122.826103 
	C137.298340,109.439522 151.381851,78.601547 143.223862,51.008228 
	C132.836288,15.873644 97.519325,-3.414506 62.316708,6.821288 
	C31.020979,15.921085 11.502530,47.436344 17.919445,79.509750 
z"/>
<path fill="#090909" opacity="1.000000" stroke="none" 
	d="
M17.872341,79.084366 
	C11.502530,47.436344 31.020979,15.921085 62.316708,6.821288 
	C97.519325,-3.414506 132.836288,15.873644 143.223862,51.008228 
	C151.381851,78.601547 137.298340,109.439522 110.122238,122.826103 
	C106.861801,124.432159 105.559700,126.134369 106.017250,129.548706 
	C106.192635,130.857422 106.048141,132.209320 106.045120,133.541550 
	C106.018379,145.337784 98.931900,150.590042 87.702217,147.132660 
	C87.487938,147.368546 87.121132,147.587296 87.087883,147.848495 
	C85.984833,156.515152 79.177757,159.903442 73.279640,159.092636 
	C66.745033,158.194290 63.144062,153.169495 63.130291,144.798004 
	C63.120995,139.146347 63.128517,133.494644 63.128517,127.563011 
	C39.459877,119.592041 23.662971,104.228577 17.872341,79.084366 
M53.601398,74.710236 
	C59.582344,68.478096 65.563293,62.245953 71.544235,56.013813 
	C71.220543,55.566540 70.896851,55.119270 70.573158,54.672001 
	C67.707687,55.701645 64.842224,56.731289 61.976757,57.760933 
	C61.619278,57.271931 61.261795,56.782925 60.904316,56.293922 
	C63.756588,53.214886 66.608864,50.135849 69.567299,46.942207 
	C67.168381,46.040745 64.570084,45.064358 61.333679,43.727360 
	C60.490807,43.139473 59.647938,42.551590 58.805065,41.963707 
	C58.895325,41.578854 58.985584,41.194000 59.075840,40.809147 
	C63.277508,40.809147 67.479179,40.809147 72.587379,40.809147 
	C71.466408,37.429939 70.211647,33.647408 69.704491,29.752686 
	C75.974281,31.305462 78.195961,36.434910 80.001930,41.831715 
	C85.379486,39.126419 90.484634,36.302311 95.270187,41.102623 
	C91.625252,42.872578 87.980316,44.642532 83.980057,46.585026 
	C89.164612,48.362534 93.856049,50.114300 94.840950,56.188889 
	C94.725746,56.335445 94.610550,56.481998 93.778313,56.437019 
	C90.478943,55.289776 87.179573,54.142529 84.354164,53.160088 
	C84.115074,57.884991 83.907249,61.991982 83.699425,66.098969 
	C83.175972,66.138878 82.652519,66.178780 82.129066,66.218681 
	C80.493645,62.341507 78.858223,58.464329 77.053749,54.186378 
	C70.133003,63.677082 63.534012,72.726562 56.301933,82.051773 
	C53.559032,85.511215 50.816135,88.970657 47.277504,93.433701 
	C53.290936,97.377518 58.534454,101.467911 64.361717,104.396988 
	C67.932610,106.191887 69.190712,107.979622 69.105110,111.869904 
	C68.856209,123.181702 68.992706,134.502609 69.030159,145.819763 
	C69.046158,150.655548 71.241608,153.388397 74.970238,153.432617 
	C78.790421,153.477936 80.928177,150.879044 80.963623,145.921753 
	C81.017181,138.432648 80.808311,130.935944 81.112213,123.458786 
	C81.179680,121.798889 82.918221,120.206909 83.887337,118.583656 
	C84.928322,120.181870 86.703781,121.708466 86.867958,123.392166 
	C87.302116,127.844673 86.466759,132.474350 87.294739,136.812469 
	C87.706116,138.967819 90.473480,141.872238 92.517616,142.182800 
	C94.595398,142.498489 99.048210,140.122025 99.103920,138.784683 
	C99.605026,126.755112 100.349113,114.576523 98.919792,102.694565 
	C98.232018,96.977173 93.034698,91.802254 89.632446,85.957275 
	C87.838005,90.175735 86.226318,93.964546 84.387253,98.287895 
	C83.398643,96.752563 82.797585,95.819107 82.176025,94.012169 
	C82.337082,90.918968 82.498131,87.825760 82.669624,84.532082 
	C78.883308,85.819725 75.097763,87.107109 71.312225,88.394485 
	C70.942055,87.816483 70.571892,87.238472 70.201721,86.660461 
	C73.924637,83.577881 77.647552,80.495300 81.299057,77.471840 
	C78.013306,75.887093 74.403015,74.145813 69.984894,72.014900 
	C76.752769,68.839867 81.839615,70.419594 86.799568,74.019287 
	C88.180450,68.109001 90.385597,63.159992 97.590446,61.295555 
	C96.015244,65.486267 94.697021,68.993301 93.120110,72.967400 
	C93.179749,73.220215 93.239388,73.473022 93.299019,73.725838 
	C93.591759,73.544846 93.884491,73.363861 94.919830,73.070496 
	C99.282646,70.931129 103.699211,71.259941 108.421494,73.396774 
	C108.387749,73.619194 108.354012,73.841606 107.566147,74.154945 
	C104.006149,75.672356 100.446152,77.189758 96.758499,78.761574 
	C99.377266,81.107056 101.636055,83.130112 104.123863,85.907051 
	C104.381989,87.015984 104.640121,88.124916 104.870956,89.116608 
	C101.679085,88.593407 99.082138,88.167717 96.485184,87.742035 
	C96.247490,88.117859 96.009804,88.493683 95.772110,88.869499 
	C98.613441,92.801910 101.454773,96.734314 104.262985,100.620888 
	C120.804863,91.299278 127.515312,68.829987 119.567261,50.672050 
	C111.232071,31.629669 88.727966,21.520876 68.249207,27.939402 
	C42.175369,36.034592 32.188698,65.510300 43.594261,84.592476 
	C46.767933,81.361328 49.886875,78.185898 53.601398,74.710236 
M53.404461,117.219749 
	C56.409935,118.488739 59.415405,119.757736 62.610806,121.106926 
	C64.240150,113.595711 60.330093,109.728065 55.106804,106.341789 
	C36.227203,94.102074 28.428925,72.304924 35.545284,52.039806 
	C43.791336,28.557692 69.436829,15.158800 93.477394,21.772261 
	C115.460945,27.819845 129.642090,46.433655 128.898605,69.036201 
	C128.474396,81.932442 123.158165,92.919189 113.310707,101.339752 
	C108.159439,105.744583 104.891251,110.509903 106.492767,117.848564 
	C107.338638,117.582741 107.984566,117.469208 108.548210,117.189735 
	C132.008606,105.557373 144.541626,77.302826 137.380142,52.223442 
	C129.572983,24.882919 103.426651,7.278528 74.864433,10.131445 
	C49.342232,12.680711 27.997904,31.798223 23.588234,56.851570 
	C19.525244,79.935257 28.711643,103.287254 53.404461,117.219749 
z"/>
<path fill="#606060" opacity="1.000000" stroke="none" 
	d="
M53.070312,117.059334 
	C28.711643,103.287254 19.525244,79.935257 23.588234,56.851570 
	C27.997904,31.798223 49.342232,12.680711 74.864433,10.131445 
	C103.426651,7.278528 129.572983,24.882919 137.380142,52.223442 
	C144.541626,77.302826 132.008606,105.557373 108.548210,117.189735 
	C107.984566,117.469208 107.338638,117.582741 106.492767,117.848564 
	C104.891251,110.509903 108.159439,105.744583 113.310707,101.339752 
	C123.158165,92.919189 128.474396,81.932442 128.898605,69.036201 
	C129.642090,46.433655 115.460945,27.819845 93.477394,21.772261 
	C69.436829,15.158800 43.791336,28.557692 35.545284,52.039806 
	C28.428925,72.304924 36.227203,94.102074 55.106804,106.341789 
	C60.330093,109.728065 64.240150,113.595711 62.610806,121.106926 
	C59.415405,119.757736 56.409935,118.488739 53.070312,117.059334 
z"/>
<path fill="#F6F6F6" opacity="1.000000" stroke="none" 
	d="
M82.196526,94.885658 
	C82.797585,95.819107 83.398643,96.752563 84.387253,98.287895 
	C86.226318,93.964546 87.838005,90.175735 89.632446,85.957275 
	C93.034698,91.802254 98.232018,96.977173 98.919792,102.694565 
	C100.349113,114.576523 99.605026,126.755112 99.103920,138.784683 
	C99.048210,140.122025 94.595398,142.498489 92.517616,142.182800 
	C90.473480,141.872238 87.706116,138.967819 87.294739,136.812469 
	C86.466759,132.474350 87.302116,127.844673 86.867958,123.392166 
	C86.703781,121.708466 84.928322,120.181870 83.887337,118.583656 
	C82.918221,120.206909 81.179680,121.798889 81.112213,123.458786 
	C80.808311,130.935944 81.017181,138.432648 80.963623,145.921753 
	C80.928177,150.879044 78.790421,153.477936 74.970238,153.432617 
	C71.241608,153.388397 69.046158,150.655548 69.030159,145.819763 
	C68.992706,134.502609 68.856209,123.181702 69.105110,111.869904 
	C69.190712,107.979622 67.932610,106.191887 64.361717,104.396988 
	C58.534454,101.467911 53.290936,97.377518 47.277504,93.433701 
	C50.816135,88.970657 53.559032,85.511215 56.723839,82.252380 
	C63.198391,91.226700 71.791443,94.881721 82.196526,94.885658 
z"/>
<path fill="#F5F5F5" opacity="1.000000" stroke="none" 
	d="
M108.320274,74.064026 
	C108.354012,73.841606 108.387749,73.619194 108.564713,72.848770 
	C109.132980,71.120010 109.854118,69.959496 109.936462,68.755295 
	C110.622482,58.723167 106.464470,50.864502 98.927315,44.515656 
	C97.758812,43.531380 96.938797,42.133392 95.957619,40.926727 
	C90.484634,36.302311 85.379486,39.126419 80.001930,41.831715 
	C78.195961,36.434910 75.974281,31.305462 69.348343,29.491133 
	C68.994560,28.805401 68.996941,28.381224 68.999313,27.957045 
	C88.727966,21.520876 111.232071,31.629669 119.567261,50.672050 
	C127.515312,68.829987 120.804863,91.299278 104.262985,100.620888 
	C101.454773,96.734314 98.613441,92.801910 95.772110,88.869499 
	C96.009804,88.493683 96.247490,88.117859 96.485184,87.742035 
	C99.082138,88.167717 101.679085,88.593407 104.870956,89.116608 
	C104.640121,88.124916 104.381989,87.015984 104.069641,85.168785 
	C105.450363,80.975021 106.885323,77.519524 108.320274,74.064026 
z"/>
<path fill="#C2C2C2" opacity="1.000000" stroke="none" 
	d="
M95.613907,41.014675 
	C96.938797,42.133392 97.758812,43.531380 98.927315,44.515656 
	C106.464470,50.864502 110.622482,58.723167 109.936462,68.755295 
	C109.854118,69.959496 109.132980,71.120010 108.424850,72.541687 
	C103.699211,71.259941 99.282646,70.931129 94.356796,72.946838 
	C93.655449,72.715569 93.517128,72.607956 93.378799,72.500336 
	C94.697021,68.993301 96.015244,65.486267 97.590446,61.295555 
	C90.385597,63.159992 88.180450,68.109001 86.799568,74.019287 
	C81.839615,70.419594 76.752769,68.839867 69.984894,72.014900 
	C74.403015,74.145813 78.013306,75.887093 81.299057,77.471840 
	C77.647552,80.495300 73.924637,83.577881 70.201721,86.660461 
	C70.571892,87.238472 70.942055,87.816483 71.312225,88.394485 
	C75.097763,87.107109 78.883308,85.819725 82.669624,84.532082 
	C82.498131,87.825760 82.337082,90.918968 82.186279,94.448914 
	C71.791443,94.881721 63.198391,91.226700 57.040382,82.114510 
	C63.534012,72.726562 70.133003,63.677082 77.053749,54.186378 
	C78.858223,58.464329 80.493645,62.341507 82.129066,66.218681 
	C82.652519,66.178780 83.175972,66.138878 83.699425,66.098969 
	C83.907249,61.991982 84.115074,57.884991 84.354164,53.160088 
	C87.179573,54.142529 90.478943,55.289776 94.350739,56.647568 
	C95.023705,56.499470 95.124245,56.140831 95.224792,55.782192 
	C93.856049,50.114300 89.164612,48.362534 83.980057,46.585026 
	C87.980316,44.642532 91.625252,42.872578 95.613907,41.014675 
z"/>
<path fill="#F2F2F2" opacity="1.000000" stroke="none" 
	d="
M68.624260,27.948223 
	C68.996941,28.381224 68.994560,28.805401 68.974533,29.547226 
	C70.211647,33.647408 71.466408,37.429939 72.587379,40.809147 
	C67.479179,40.809147 63.277508,40.809147 59.075840,40.809147 
	C58.985584,41.194000 58.895325,41.578854 58.805065,41.963707 
	C59.647938,42.551590 60.490807,43.139473 61.625546,44.249496 
	C53.949051,53.378345 49.794365,63.108982 53.005814,75.010468 
	C49.886875,78.185898 46.767933,81.361328 43.594261,84.592476 
	C32.188698,65.510300 42.175369,36.034592 68.624260,27.948223 
z"/>
<path fill="#C0C0C0" opacity="1.000000" stroke="none" 
	d="
M53.303604,74.860352 
	C49.794365,63.108982 53.949051,53.378345 61.944603,44.429802 
	C64.570084,45.064358 67.168381,46.040745 69.567299,46.942207 
	C66.608864,50.135849 63.756588,53.214886 60.904316,56.293922 
	C61.261795,56.782925 61.619278,57.271931 61.976757,57.760933 
	C64.842224,56.731289 67.707687,55.701645 70.573158,54.672001 
	C70.896851,55.119270 71.220543,55.566540 71.544235,56.013813 
	C65.563293,62.245953 59.582344,68.478096 53.303604,74.860352 
z"/>
<path fill="#B9B9B9" opacity="1.000000" stroke="none" 
	d="
M107.943207,74.109482 
	C106.885323,77.519524 105.450363,80.975021 103.955124,84.791840 
	C101.636055,83.130112 99.377266,81.107056 96.758499,78.761574 
	C100.446152,77.189758 104.006149,75.672356 107.943207,74.109482 
z"/>
<path fill="#C2C2C2" opacity="1.000000" stroke="none" 
	d="
M93.985504,73.003021 
	C93.884491,73.363861 93.591759,73.544846 93.299026,73.725838 
	C93.239388,73.473022 93.179749,73.220215 93.249451,72.733871 
	C93.517128,72.607956 93.655449,72.715569 93.985504,73.003021 
z"/>
<path fill="#090909" opacity="1.000000" stroke="none" 
	d="
M95.032867,55.985542 
	C95.124245,56.140831 95.023705,56.499470 94.709259,56.743332 
	C94.610550,56.481998 94.725746,56.335445 95.032867,55.985542 
z"/>
</svg>